<?xml version="1.0" encoding="UTF-8"?>
<!-- Generated by Pixelmator Pro 3.7.1 -->
<svg width="824" height="760" viewBox="0 0 824 760" xmlns="http://www.w3.org/2000/svg">
    <path id="Path-copy" fill="#231a18" stroke="none" d="M 1.688934 196.150391 C 1.924438 193.160034 2.797729 190.017883 5.074341 188.063354 C 7.580353 185.910461 11.163116 185.681702 14.467651 185.617126 C 72.693176 184.472046 131.136353 202.544922 178.552032 236.356628 C 188.90564 243.739624 198.901154 251.936646 210.665161 256.768311 C 220.757843 260.914551 231.708069 262.394104 242.473145 264.173828 C 258.78479 266.869629 274.969788 270.333374 290.955933 274.549133 C 310.248596 279.637085 329.4823 285.799561 349.017639 289.536194 C 319.973022 278.015442 288.943298 270.401672 261.186035 255.902161 C 228.866882 239.019531 201.949341 213.241211 178.820587 185.05127 C 155.693848 156.861267 135.985596 126.067505 114.862854 96.345459 C 97.220642 71.520752 77.808929 45.385864 76.370544 14.965088 C 76.164551 10.617065 76.784058 5.4646 80.575348 3.325439 C 82.398254 2.295898 84.594513 2.21875 86.688538 2.280029 C 96.331055 2.5625 105.748291 5.231689 114.833862 8.474243 C 155.079956 22.8396 190.996094 49.107544 216.880585 83.11084 C 225.246979 94.102539 232.574768 105.856628 240.975739 116.822998 C 264.294739 147.262085 295.196838 170.817505 323.725159 196.4375 C 344.521912 215.112488 364.119751 235.103394 382.536621 256.128723 C 383.78479 252.234558 385.160645 248.389587 386.877747 244.675354 C 387.105591 244.181213 387.384338 243.702087 387.626953 243.21167 L 349.901123 212.124512 L 349.901123 164.942444 L 337.226135 157.614563 L 337.226135 153.474609 L 354.127808 162.899963 L 354.127808 206.777466 L 390.686829 237.824158 C 393.266602 233.820007 396.382446 230.179993 399.992188 227.256714 C 390.850098 216.442505 375.607605 196.815002 375.607605 196.815002 L 387.269897 161.388672 L 384.18866 130.363403 L 377.544983 123.762573 L 377.544983 120.800049 L 387.091858 128.755859 L 391.128845 160.578674 L 381.434937 195.044128 L 404.452332 224.15918 C 407.256348 222.557861 410.274048 221.373779 413.521118 220.810852 C 420.865662 219.537903 429.70813 220.925415 434.603149 215.305359 C 436.109741 213.57666 437.053223 211.339233 438.001831 209.150879 C 432.083435 204.386658 423.246033 203.315002 418.971558 197.032959 C 417.04895 194.205383 416.376526 190.677917 416.43811 187.258301 C 416.505249 183.44873 417.627258 179.355042 420.677979 177.073303 C 426.765747 172.519958 436.926086 177.374146 442.383118 172.081665 L 442.279846 172.22876 C 448.40271 166.057861 458.024414 163.24707 466.343506 166.015381 C 462.186462 167.106689 459.727783 172.280396 461.359436 176.255859 C 462.990601 180.231262 468.192322 182.212463 472.126038 180.481262 C 476.059265 178.75 478.124817 173.747009 476.721985 169.684998 C 482.358582 175.888367 485.354431 184.416626 484.835632 192.782104 C 484.757263 194.037048 484.614868 195.352966 485.120972 196.503357 C 485.633118 197.668762 486.721069 198.45752 487.73938 199.220825 C 490.970642 201.642883 494.042786 204.457153 495.861633 208.0625 C 497.681458 211.667908 498.059387 216.202454 495.992859 219.672058 C 492.567749 225.422058 484.384949 225.935791 477.868958 224.407837 C 471.375305 222.885437 464.815552 220.016235 458.292419 221.378723 C 456.566162 224.712036 454.843933 228.187073 455.677612 232.380432 C 456.611938 237.08667 459.062988 241.325439 461.008484 245.711304 C 461.690552 247.248352 462.249573 248.835388 462.811096 250.42041 L 502.1828 251.561646 L 534.261353 213.877502 L 556.061584 203.600464 L 571.011169 209.206299 L 568.256409 212.009216 L 555.127747 207.960449 L 535.818298 218.4104 L 504.675598 258.41333 L 465.140076 258.41333 C 466.073914 262.726257 466.560181 267.132446 466.609009 271.545837 L 512.54657 276.940063 L 547.704895 240.317078 L 560.934753 243.246643 L 560.934753 247.641663 L 548.437317 245.269165 L 515.108521 286.062927 L 465.98645 279.333801 C 465.598877 281.266724 465.027161 283.150391 464.096863 284.892578 C 462.903137 287.130798 461.20636 288.985474 459.321411 290.67334 C 531.84436 295.7229 601.255615 327.8396 673.287781 342.072083 C 718.689758 351.042114 766.857178 353.382141 807.052368 376.31842 C 815.433594 381.101257 824.405762 389.449585 821.682983 398.70752 C 819.912964 404.721619 813.80188 408.243713 808.068115 410.776306 C 756.982727 433.332886 698.214539 424.990356 643.062622 416.22876 C 595.593567 408.6875 547.156067 400.832886 504.599792 378.490845 C 503.202637 377.757568 501.85321 376.939575 500.472839 376.177856 C 512.273438 386.474121 523.094482 397.749634 532.287415 410.526306 C 536.652405 416.594238 540.755493 423.093689 546.830566 427.449585 C 551.750977 430.977905 557.632751 432.85083 563.382263 434.752075 C 618.657715 453.034607 673.25061 480.309204 709.437866 525.917114 C 717.257996 535.772095 724.375183 547.132935 724.662598 559.710449 C 724.704773 561.561218 724.541016 563.564575 723.340149 564.973389 C 721.948547 566.604126 719.607361 566.957153 717.47821 567.202515 C 696.850403 569.57666 675.857361 571.94165 655.440552 568.166992 C 637.972839 564.938416 621.66272 557.345886 605.570251 549.824585 C 592.477722 543.705383 579.384644 537.586243 566.292603 531.466736 C 520.169861 509.910889 473.879822 488.261719 431.153137 460.579224 C 416.270264 450.935791 400.647766 438.753784 397.704895 421.26416 C 394.565613 402.600891 407.032593 384.909241 408.835632 366.069214 C 409.389038 360.275452 408.828552 354.406616 407.349426 348.778687 L 402.834351 377.910034 L 379.947205 425.27124 L 384.702332 461.133362 L 381.434937 461.133362 L 374.299927 425.27124 L 397.200317 376.720825 L 398.596497 364.419983 C 398.081787 365.626709 397.49176 366.806702 396.805115 367.949951 C 392.523499 375.073792 385.28064 379.793701 379.313477 385.579224 C 357.775696 406.457581 354.067261 439.563782 337.88739 464.822021 C 328.876038 478.888367 315.594788 491.442505 313.629944 508.031616 C 312.7724 515.266724 314.041443 523.290405 309.86615 529.261292 C 307.62561 532.466309 304.142029 534.522522 301.021118 536.877075 C 292.112 543.595398 285.623474 553.454102 282.975586 564.292969 C 281.729919 569.388733 281.305725 574.682129 279.688843 579.671631 C 277.496155 586.43457 273.234863 592.29248 269.326599 598.230408 C 255.484802 619.260437 245.38147 642.742432 239.629913 667.253296 C 237.949402 674.411682 236.608154 681.745056 233.400269 688.361633 C 227.26825 701.006592 215.030701 709.6604 207.816864 721.719482 C 203.055115 729.677856 200.622345 738.893799 195.555908 746.662048 C 190.488983 754.429565 181.30014 760.82373 172.351868 758.383728 C 174.753601 751.840881 177.155334 745.296631 179.557587 738.75293 C 173.449493 742.258362 169.051392 748.599121 167.90802 755.547119 C 161.767365 748.432434 162.179352 736.588745 168.798615 729.917603 C 171.628601 727.06543 175.363464 725.117554 177.728577 721.869934 C 179.941589 718.830017 180.699463 715.007935 181.571747 711.350037 C 189.830322 676.703308 212.42807 647.595886 232.478119 618.157471 C 235.621429 613.542114 238.737274 608.851685 240.828247 603.674988 C 243.47818 597.118774 244.408966 589.975403 246.981598 583.389954 C 253.620178 566.396606 270.464905 554.719604 276.086243 537.363708 C 278.168518 530.936218 278.595764 524.003784 281.26355 517.796265 C 284.286804 510.762451 289.914246 505.252502 294.80365 499.36084 C 306.162292 485.672546 313.977844 469.067017 317.286987 451.5896 C 318.261536 446.445374 318.890198 441.112915 321.328003 436.479248 C 323.416931 432.510437 326.693542 429.327026 329.638977 425.945068 C 339.070923 415.112976 345.421143 401.625854 347.761353 387.453735 C 348.950989 380.243347 349.13562 372.833801 351.219482 365.829102 C 352.776917 360.597534 355.337341 355.773315 358.214111 351.085815 L 349.901123 357.623352 L 315.776855 406.537048 L 286.375244 418.876282 L 285.596008 415.859131 L 312.015076 401.830811 L 346.440918 353.670044 L 362.463196 336.367981 C 355.839355 340.077881 349.880798 344.978394 345.093079 350.873352 C 335.729797 362.400879 330.269653 377.7146 317.622681 385.501648 C 307.134827 391.959167 293.929321 391.740479 281.706055 390.233398 C 233.676453 384.311707 189.214355 361.955811 148.178406 336.306274 C 101.097412 306.879211 56.865234 272.484985 19.219757 231.67627 C 9.994812 221.675049 0.618286 209.715027 1.688934 196.150391 Z"/>
</svg>
