<?xml version="1.0" encoding="UTF-8"?>
<!-- Generated by Pixelmator Pro 3.7.1 -->
<svg width="228" height="212" viewBox="0 0 228 212" xmlns="http://www.w3.org/2000/svg">
    <g id="fireworks-copy">
        <path id="Path" fill="#000000" fill-opacity="0.85" stroke="none" d="M 183.664581 77.073807 C 185.341278 77.073807 186.494171 75.816284 186.80806 74.348831 C 190.685928 54.647736 190.476013 56.010086 208.815094 52.447098 C 210.387161 52.13269 211.54007 51.084808 211.54007 49.198456 C 211.54007 47.416992 210.281876 46.264221 208.815094 45.949875 C 190.371384 42.177292 190.685928 43.434814 186.80806 24.047928 C 186.494171 22.476059 185.341278 21.218521 183.664581 21.218521 C 181.777954 21.218521 180.730347 22.371216 180.415802 24.047928 C 176.43396 43.644409 175.700241 42.491653 158.514053 45.949875 C 156.941986 46.264221 155.789078 47.416992 155.789078 49.198456 C 155.789078 51.084808 156.837357 52.13269 158.514053 52.447098 C 175.700241 55.800491 176.43396 54.647736 180.415802 74.348831 C 180.730347 75.920914 181.777954 77.073807 183.664581 77.073807 Z M 96.999908 211 C 98.571976 211 99.410332 209.952393 99.619583 208.589569 C 102.763733 193.813812 102.763733 193.813812 117.539497 190.774963 C 118.79702 190.565704 119.845291 189.727356 119.845291 188.155273 C 119.845291 186.583206 118.79702 185.744858 117.539497 185.535599 C 102.763733 182.496078 102.763733 182.496078 99.619583 167.720306 C 99.410332 166.358154 98.571976 165.309891 96.999908 165.309891 C 95.533127 165.309891 94.589478 166.358154 94.380226 167.720306 C 91.34137 182.496078 91.34137 182.496078 76.565605 185.535599 C 75.202789 185.744858 74.155182 186.583206 74.155182 188.155273 C 74.155182 189.727356 75.202789 190.565704 76.565605 190.774963 C 91.34137 193.813812 91.34137 193.813812 94.380226 208.589569 C 94.589478 209.952393 95.533127 211 96.999908 211 Z M 53.615456 183.858887 C 54.977741 183.858887 55.71133 183.020538 55.920856 181.867645 C 58.331146 169.711563 58.331146 169.711563 70.382607 167.301132 C 71.5355 167.091888 72.373856 166.358154 72.373856 165.100632 C 72.373856 163.73848 71.5355 163.004761 70.382607 162.79483 C 58.331146 160.385071 58.331146 160.385071 55.920856 148.228333 C 55.71133 147.180725 54.977741 146.342377 53.615456 146.342377 C 52.357929 146.342377 51.62434 147.180725 51.414753 148.228333 C 49.004524 160.385071 49.004524 160.385071 36.848442 162.79483 C 35.695679 163.004761 34.857327 163.73848 34.857327 165.100632 C 34.857327 166.358154 35.695679 167.091888 36.848442 167.301132 C 49.004524 169.711563 49.004524 169.711563 51.414753 181.867645 C 51.62434 183.020538 52.357929 183.858887 53.615456 183.858887 Z"/>
        <path id="path1" fill="#000000" fill-opacity="0.85" stroke="none" d="M 175.385696 177.152084 C 178.319916 177.152084 180.625717 174.741669 180.625717 171.807434 L 180.625717 160.385071 L 186.494171 166.04361 C 188.590057 168.24411 191.838165 168.34874 193.829407 166.04361 C 196.135208 164.052368 196.135208 160.803589 193.829407 158.603088 L 188.170868 152.83992 L 199.593231 152.83992 C 202.527466 152.83992 204.937881 150.534119 204.937881 147.599884 C 204.937881 144.665665 202.527466 142.359863 199.593231 142.359863 L 188.170868 142.359863 L 193.934708 136.491425 C 196.135208 134.39621 196.135208 131.14743 193.934708 129.051544 C 191.838165 126.851044 188.590057 126.851044 186.494171 129.051544 L 180.625717 134.814713 L 180.625717 123.392349 C 180.625717 120.458122 178.319916 118.047699 175.385696 118.047699 C 172.451462 118.047699 170.146332 120.458122 170.146332 123.392349 L 170.146332 134.814713 L 164.382507 129.051544 C 162.286636 126.851044 158.933228 126.851044 156.837357 129.051544 C 154.636841 131.14743 154.636841 134.39621 156.837357 136.491425 L 162.601181 142.359863 L 151.178818 142.359863 C 148.243927 142.359863 145.834167 144.665665 145.834167 147.599884 C 145.834167 150.534119 148.243927 152.83992 151.178818 152.83992 L 162.601181 152.83992 L 156.837357 158.603088 C 154.636841 160.803589 154.636841 164.052368 156.837357 166.04361 C 158.933228 168.34874 162.182007 168.34874 164.382507 166.04361 L 170.146332 160.385071 L 170.146332 171.807434 C 170.146332 174.741669 172.451462 177.152084 175.385696 177.152084 Z M 175.385696 113.227516 C 179.05365 113.227516 182.092499 110.18866 182.092499 106.416084 C 182.092499 102.748131 179.05365 99.709274 175.385696 99.709274 C 171.717743 99.709274 168.678894 102.748131 168.678894 106.416084 C 168.678894 110.18866 171.717743 113.227516 175.385696 113.227516 Z M 203.156555 125.802773 C 206.509964 125.802773 209.338898 123.183098 209.338898 119.619774 C 209.338898 116.266373 206.509964 113.64669 203.156555 113.64669 C 199.697861 113.64669 197.078186 116.266373 197.078186 119.619774 C 197.078186 123.183098 199.697861 125.802773 203.156555 125.802773 Z M 216.570175 154.306702 C 220.237442 154.306702 223.276978 151.267853 223.276978 147.599884 C 223.276978 143.931946 220.237442 140.893097 216.570175 140.893097 C 212.796921 140.893097 209.863373 143.931946 209.863373 147.599884 C 209.863373 151.267853 212.796921 154.306702 216.570175 154.306702 Z M 203.156555 181.65773 C 206.509964 181.65773 209.338898 178.828796 209.338898 175.580017 C 209.338898 172.016693 206.509964 169.397003 203.156555 169.397003 C 199.697861 169.397003 197.078186 172.016693 197.078186 175.580017 C 197.078186 178.828796 199.697861 181.65773 203.156555 181.65773 Z M 175.385696 195.490509 C 179.05365 195.490509 182.092499 192.45166 182.092499 188.783707 C 182.092499 185.011124 179.05365 182.076904 175.385696 182.076904 C 171.717743 182.076904 168.678894 185.011124 168.678894 188.783707 C 168.678894 192.45166 171.717743 195.490509 175.385696 195.490509 Z M 147.615494 181.553101 C 151.073517 181.553101 153.693863 178.828796 153.693863 175.580017 C 153.693863 172.016693 151.073517 169.397003 147.615494 169.397003 C 144.262085 169.397003 141.432495 172.016693 141.432495 175.580017 C 141.432495 178.828796 144.262085 181.553101 147.615494 181.553101 Z M 134.201889 154.306702 C 137.974457 154.306702 140.908691 151.267853 140.804062 147.599884 C 140.908691 143.931946 137.974457 140.893097 134.201889 140.893097 C 130.533936 140.893097 127.495079 143.931946 127.495079 147.599884 C 127.495079 151.267853 130.533936 154.306702 134.201889 154.306702 Z M 147.615494 125.802773 C 151.073517 125.802773 153.693863 123.183098 153.693863 119.619774 C 153.693863 116.266373 151.073517 113.64669 147.615494 113.64669 C 144.262085 113.64669 141.432495 116.266373 141.432495 119.619774 C 141.432495 123.183098 144.262085 125.802773 147.615494 125.802773 Z"/>
        <path id="path2" fill="#000000" fill-opacity="0.85" stroke="none" d="M 69.544121 95.622154 C 72.478477 95.622154 74.99353 93.317017 74.99353 90.172874 L 74.888901 82.103912 L 80.652069 87.867073 C 82.85257 89.963615 86.311264 89.963615 88.511772 87.867073 C 90.503021 85.771866 90.607651 82.208542 88.511772 80.112671 L 82.643318 74.348831 L 90.817566 74.348831 C 93.856422 74.348831 96.266182 71.938416 96.266182 68.899704 C 96.266182 65.860703 93.856422 63.450424 90.817566 63.450424 L 82.643318 63.450424 L 88.407143 57.791611 C 90.607651 55.486084 90.503021 52.13269 88.407143 49.932037 C 86.311264 47.940933 82.85257 47.7314 80.54744 49.932037 L 74.99353 55.69574 L 74.888901 47.626572 C 74.888901 44.482758 72.583107 42.177292 69.439293 42.177292 C 66.505066 42.177292 63.990013 44.482758 63.990013 47.626572 L 64.094841 55.69574 L 58.226383 49.932037 C 56.130508 47.836166 52.672279 47.836166 50.471577 49.932037 C 48.375698 52.027908 48.375698 55.590912 50.471577 57.791611 L 56.235268 63.450424 L 48.166176 63.450424 C 45.127121 63.450424 42.716896 65.860703 42.716896 68.899704 C 42.716896 71.938416 45.127121 74.348831 48.166176 74.348831 L 56.235268 74.348831 L 50.576401 80.112671 C 48.375698 82.313171 48.375698 85.666573 50.576401 87.867073 C 52.672279 89.963615 56.130508 90.068245 58.331146 87.867073 L 63.990013 82.103912 L 64.094841 90.172874 C 64.094841 93.317017 66.400238 95.622154 69.544121 95.622154 Z M 69.544121 33.374619 C 72.897652 33.374619 75.621964 30.649979 75.621964 27.29657 L 75.621964 9.062439 C 75.621964 5.709045 72.897652 2.984406 69.544121 2.984406 C 66.190712 2.984406 63.466011 5.709045 63.466011 9.062439 L 63.466011 27.29657 C 63.466011 30.649979 66.190712 33.374619 69.544121 33.374619 Z M 87.568794 38.195129 C 90.503021 39.976593 94.170967 38.928726 95.847672 35.994492 L 104.964233 20.275345 C 106.746231 17.34111 105.59333 13.568542 102.763733 11.996674 C 99.829506 10.215134 96.266182 11.263153 94.484856 14.197372 L 85.367622 29.916397 C 83.586296 32.850616 84.739189 36.623199 87.568794 38.195129 Z M 100.772484 51.399155 C 102.449181 54.333374 106.221764 55.276566 109.051361 53.599854 L 124.875397 44.587524 C 127.704994 42.910828 128.752609 39.138245 127.075905 36.308838 C 125.3992 33.374619 121.626625 32.431442 118.79702 34.003372 L 102.972984 43.120483 C 100.144051 44.692352 99.095779 48.569763 100.772484 51.399155 Z M 105.59333 69.423691 C 105.59333 72.88205 108.422935 75.50174 111.671043 75.50174 L 129.905502 75.606369 C 133.258911 75.606369 136.088501 72.776764 136.088501 69.528519 C 136.088501 66.070282 133.258911 63.450424 130.010132 63.450424 L 111.671043 63.345642 C 108.422935 63.345642 105.59333 66.175125 105.59333 69.423691 Z M 100.772484 87.448563 C 99.095779 90.487419 100.24868 94.155373 102.972984 95.726776 L 118.692398 104.948639 C 121.626625 106.625336 125.3992 105.577728 127.075905 102.85276 C 128.752609 99.813904 127.599709 96.14595 124.875397 94.469254 L 109.051361 85.247398 C 106.326393 83.675323 102.344559 84.618965 100.772484 87.448563 Z M 87.568794 100.652252 C 84.634567 102.538879 83.690918 106.206161 85.367622 108.931137 L 94.380226 124.754501 C 96.056923 127.6894 99.934135 128.737 102.763733 127.164932 C 105.69796 125.383598 106.536308 121.715652 104.964233 118.886047 L 95.847672 102.85276 C 94.275597 100.128456 90.397728 99.080185 87.568794 100.652252 Z M 69.544121 105.577728 C 66.190712 105.577728 63.466011 108.30204 63.466011 111.655441 L 63.466011 129.889893 C 63.466011 133.243301 66.190712 135.967621 69.544121 135.967621 C 72.897652 135.967621 75.621964 133.243301 75.621964 129.889893 L 75.621964 111.655441 C 75.621964 108.30204 72.897652 105.577728 69.544121 105.577728 Z M 51.519577 100.756882 C 48.58535 99.080185 44.917534 100.023827 43.240833 102.95739 L 34.018974 118.781425 C 32.342274 121.715652 33.390213 125.383598 36.219616 127.060303 C 39.153843 128.737 42.821659 127.6894 44.603123 124.754501 L 53.720219 109.035759 C 55.396919 106.101532 54.34898 102.433586 51.519577 100.756882 Z M 38.315491 87.553192 C 36.534027 84.618965 32.866211 83.675323 30.03681 85.35202 L 14.212974 94.364624 C 11.278747 96.041328 10.335568 99.918533 11.907442 102.748131 C 13.688972 105.682358 17.356722 106.520714 20.18619 104.948639 L 36.114853 95.832069 C 38.944317 94.259995 39.887432 90.382126 38.315491 87.553192 Z M 33.495037 69.528519 C 33.495037 66.070282 30.665573 63.450424 27.416931 63.450424 L 9.182837 63.345642 C 5.829433 63.345642 3 66.175125 3 69.423691 C 3 72.88205 5.829433 75.50174 9.078043 75.50174 L 27.416931 75.606369 C 30.665573 75.606369 33.495037 72.776764 33.495037 69.528519 Z M 38.315491 51.503983 C 39.887432 48.46492 38.839493 44.79718 36.114853 43.225235 L 20.290949 34.003372 C 17.356722 32.326675 13.688972 33.479446 11.907442 36.204025 C 10.335568 39.243073 11.383507 42.806061 14.212974 44.482758 L 30.03681 53.70462 C 32.761448 55.381317 36.63879 54.333374 38.315491 51.503983 Z M 51.519577 38.299896 C 54.453804 36.518433 55.292156 32.74585 53.720219 30.02121 L 44.603123 14.197372 C 43.031246 11.367905 39.04908 10.215134 36.219616 11.89183 C 33.285385 13.568542 32.551861 17.34111 34.123737 20.170593 L 43.240833 36.099258 C 44.812771 38.823898 48.690113 39.976593 51.519577 38.299896 Z"/>
    </g>
</svg>
