<svg height="512" viewBox="0 0 512 512" width="512" xmlns="http://www.w3.org/2000/svg"><path d="m85 131h-20c-8.284 0-15 6.716-15 15s6.716 15 15 15h20c8.284 0 15-6.716 15-15s-6.716-15-15-15z"/><path d="m155 131h-20c-8.284 0-15 6.716-15 15s6.716 15 15 15h20c8.284 0 15-6.716 15-15s-6.716-15-15-15z"/><path d="m362 451.872v-69.816c0-27.604-13.712-53.225-36.68-68.536-5.037-3.359-11.604-3.359-16.641 0-22.967 15.311-36.679 40.932-36.679 68.536v69.816c-5.822 2.061-10 7.6-10 14.128 0 8.284 6.716 15 15 15h80c8.284 0 15-6.716 15-15 0-6.528-4.178-12.067-10-14.128zm-30-.872h-30v-68.944c0-13.9 5.47-27.011 15-36.699 9.53 9.688 15 22.799 15 36.699z"/><path d="m502 451.872v-69.816c0-27.604-13.712-53.225-36.68-68.536-5.037-3.359-11.604-3.359-16.641 0-22.967 15.311-36.679 40.932-36.679 68.536v69.816c-5.822 2.061-10 7.6-10 14.128 0 8.284 6.716 15 15 15h80c8.284 0 15-6.716 15-15 0-6.528-4.178-12.067-10-14.128zm-30-.872h-30v-68.944c0-13.9 5.47-27.011 15-36.699 9.53 9.688 15 22.799 15 36.699z"/><path d="m510.416 139.292-30-60c-2.54-5.082-7.734-8.292-13.416-8.292h-46.605l-11.35-30.267c-2.195-5.854-7.792-9.733-14.045-9.733h-190c-8.284 0-15 6.716-15 15v25h-145c-24.813 0-45 20.187-45 45v60c0 19.555 12.541 36.228 30 42.42v47.58c0 8.284 6.716 15 15 15 5.033 0 9.696 2.275 12.794 6.242 3.097 3.967 4.174 9.043 2.953 13.926l-24.086 96.343c-2.633 10.529-.312 21.474 6.367 30.028 6.679 8.555 16.734 13.461 27.587 13.461h48.77c16.09 0 30.053-10.902 33.954-26.512l15.872-63.488h35.789c30.327 0 55-24.673 55-55v-15h177c5.682 0 10.876-3.21 13.416-8.292l25.854-51.708h20.73c8.284 0 15-6.716 15-15v-60c0-2.329-.542-4.625-1.584-6.708zm-230.416-78.292h104.605l18.75 50h-123.355zm-60 0h30v50h-30zm-175 130c-8.271 0-15-6.729-15-15v-60c0-8.271 6.729-15 15-15h145v25c0 8.284 6.716 15 15 15h175v50zm79.235 216.213c-.558 2.229-2.553 3.787-4.851 3.787h-48.77c-2.122 0-3.38-1.205-3.94-1.923-.562-.718-1.425-2.23-.91-4.29l5.947-23.787h59.077zm105.765-111.213c0 13.785-11.215 25-25 25h-28.288l10-40h43.288zm197.729-45h-272.259c-8.103 0-15.098 6.226-15.455 14.321-.379 8.593 6.476 15.679 14.985 15.679h.789l-17.5 70h-59.078l10.639-42.557c3.478-13.907.411-28.364-8.411-39.663-5.627-7.207-13.067-12.454-21.439-15.309v-32.471h382.73zm54.271-60h-72v-50h15c10.473 0 17.722-10.46 14.045-20.266l-7.4-19.734h26.085l24.27 48.541z"/></svg>