<svg height="512" viewBox="0 0 511.009 511.009" width="512" xmlns="http://www.w3.org/2000/svg"><path d="m434 81.846v-46.342h-36.574c-55.282 35.937-85.373 81.525-110.945 141h-78.276c-25.567 0-49.629 6.557-70.603 18.069l-26.388-10.64c-12.887-5.196-21.214-17.533-21.214-31.429-2.465-59.687-87.534-59.691-90 0 0 49.027 28.259 93.619 72.3 114.662-7.274 17.419-11.3 36.519-11.3 56.544v151.795h90v-89.651l9.593-4.706c21.806-10.697 37.231-31.243 41.917-54.644h78.49v145h90v-144.155c35.75-26.785 51.725-72.754 39.767-116.396l30.958-4.465c38.86-4.969 69.904-40.812 69.274-79.983.001 0 .001-9.658.001-9.658zm-404 70.658c.823-19.895 29.176-19.899 30 0 0 26.198 15.699 49.456 39.996 59.252l8.752 3.529c-8.292 7.613-15.711 16.162-22.088 25.478-34.459-15.786-56.66-50.278-56.66-88.259zm144 159c0 18.012-10.449 34.777-26.62 42.71l-26.38 12.941v78.349h-30v-121.794c0-52.732 35.007-97.437 83-112.109zm30-15v-89.917c1.396-.049 77-.083 77-.083v30h-31v30h31v30zm233.443-119.709-64.209 9.261 8.826 33.696c9.717 36.969-7.91 73.453-41.059 91.529v130.223h-30c0-64.678 0-182.529 0-246.647 23.128-52.415 45.123-93.276 93-127.47v33.775l76.138 34.608c-3.942 20.973-20.985 37.894-42.696 41.025z"/></svg>