<svg height="512" viewBox="0 0 512 512" width="512" xmlns="http://www.w3.org/2000/svg"><path d="m175.347 184.438c-4.142 0-7.5 3.358-7.5 7.5v15.498c0 4.142 3.358 7.5 7.5 7.5s7.5-3.358 7.5-7.5v-15.498c0-4.142-3.358-7.5-7.5-7.5z"/><path d="m336.652 184.438c-4.142 0-7.5 3.358-7.5 7.5v15.498c0 4.142 3.358 7.5 7.5 7.5s7.5-3.358 7.5-7.5v-15.498c0-4.142-3.358-7.5-7.5-7.5z"/><path d="m282.578 243.115c-.611-.496-14.55-14.186-26.577-14.186-12.252 0-26.325 14.017-26.465 14.158-9.317 8.799-17.659 18.872-26.264 33.667-12.538 21.56-.023 49.08 24.465 53.793 17.958 3.456 38.561 3.457 56.521.001 24.798-4.772 36.815-32.585 24.413-53.886-10.459-17.963-20.838-28.729-26.093-33.547zm-1.154 72.704c-16.159 3.109-34.694 3.108-50.852-.001-14.33-2.758-21.67-18.906-14.333-31.522 10.698-18.394 23.935-30.634 23.935-30.634 4.792-4.821 12.779-9.733 15.827-9.733 2.128 0 8.178 2.647 16.117 9.94 9.494 9.056 16.936 18.914 23.59 30.341 7.381 12.673.058 28.848-14.284 31.609z"/><path d="m438.329 410.438c-9.195-12.796-18.389-21.744-24.265-26.853 8.797-11.988 13.759-26.65 13.759-42.197v-91.412c16.392-38.981 14.601-71.936 13.973-83.379-.221-4.055-.069-3.056-.148-4.003-1.21-14.556-8.76-27.318-19.76-35.642-20.189-74.9-87.993-126.952-165.888-126.952-.029 0-.06 0-.089 0-26.879.014-52.621 6.136-76.511 18.199-3.698 1.867-5.182 6.377-3.314 10.075 1.867 3.698 6.378 5.182 10.075 3.314 21.777-10.995 45.247-16.576 69.758-16.588h.081c66.609 0 125.149 41.702 147.417 103.183-3.429-.823-7.575-1.354-11.458-1.354-284.756.029-274.1-.769-282.868 1.235 10.366-27.873 28.536-52.633 52.223-70.835 3.285-2.524 3.901-7.232 1.377-10.517s-7.231-3.9-10.517-1.377c-29.759 22.868-51.556 55.203-61.612 91.287-11.241 8.315-18.983 21.221-20.21 35.974-2.476 29.931 2.304 59.895 13.826 87.354v91.437c0 15.547 4.961 30.209 13.759 42.197-31.991 27.812-54.485 71.446-54.485 120.916 0 4.142 3.358 7.5 7.5 7.5h410.097c4.142 0 7.5-3.358 7.5-7.5-.001-42.985-16.434-74.877-30.22-94.062zm-56.517-18.705c-70.19 35.436-181.718 35.296-251.623 0-18.535-9.355-31.01-28.35-31.01-50.345v-65.295c11.281 13.44 26.813 22.714 44.455 26.176-.775 4.031-1.173 7.707-1.173 10.972 0 50.19 86.271 78.194 157.702 60.969 4.027-.971 6.504-5.022 5.533-9.049s-5.021-6.503-9.049-5.533c-64.619 15.582-139.186-10.055-139.186-46.387 0-19.313 20.321-65.388 50.712-93.313 31.139-28.571 62.562-30.403 95.602-.053 30.884 28.271 50.765 74.667 50.765 93.366 0 14.007-11.818 27.686-32.424 37.529-3.737 1.786-5.32 6.263-3.535 10s6.263 5.319 10 3.535c26.03-12.434 40.958-31.046 40.958-51.064 0-3.265-.397-6.941-1.171-10.967 17.542-3.445 33.118-12.669 44.453-26.177v65.292c.001 21.743-12.34 40.921-31.009 50.344zm-36.643-144.412c-8.509-13.757-19.025-27.266-31.202-38.459-16.361-14.928-35.711-26.083-57.966-26.083-37.548 0-69.506 32.752-89.172 64.538-10.881 4.155-23.316-.775-28.58-11.43-9.774-19.798-14.341-41.819-13.306-63.978h262.115c1.034 22.153-3.533 44.176-13.305 63.977-5.3 10.728-17.778 15.563-28.584 11.435zm-259.868-83.484c1.423-17.109 15.435-30.817 32.502-31.927 2.04-.134 274.704-.113 276.44.003 16.599 1.118 30.794 14.319 32.42 31.535-.088 8.375 5.138 45.393-16.981 90.182-8.966 18.154-25.599 30.592-45.223 34.123-2.495-7.461-5.885-15.615-10.091-23.988 13.506-.463 26.397-8.212 32.833-21.24 11.676-23.661 16.689-50.153 14.496-76.61-.424-5.135-4.611-9.007-9.739-9.007h-271.917c-5.128 0-9.315 3.873-9.739 9.004-2.196 26.465 2.817 52.958 14.497 76.616 6.37 12.894 19.172 20.763 32.828 21.23-4.208 8.375-7.596 16.53-10.088 23.99-19.643-3.541-36.268-15.987-45.222-34.118-13.505-27.341-19.605-58.495-17.016-89.793zm309.453 333.163v-43.532c0-4.142-3.358-7.5-7.5-7.5s-7.5 3.358-7.5 7.5v43.532h-247.508v-43.532c0-4.142-3.358-7.5-7.5-7.5s-7.5 3.358-7.5 7.5v43.532h-58.616c2.021-42.114 22.088-78.663 49.422-102.319 4.676 4.149 9.922 7.69 15.376 10.442 74.24 37.479 190.758 37.553 265.143 0 5.403-2.727 10.624-6.226 15.376-10.442 12.774 11.072 46.629 45.585 49.417 102.319z"/></svg>