<svg height="512" viewBox="0 0 510 510" width="512" xmlns="http://www.w3.org/2000/svg"><path d="m270 0h-150v120h-60v390h270v-390h-60zm-120 30h90v30h-30v30h30v30h-90zm150 450h-210v-330h210z"/><path d="m195 390c41.355 0 75-33.645 75-75s-33.645-75-75-75-75 33.645-75 75 33.645 75 75 75zm0-120c24.813 0 45 20.186 45 45 0 24.813-20.187 45-45 45s-45-20.187-45-45c0-24.814 20.187-45 45-45z"/><path d="m300 60h30v30h-30z"/><path d="m360 30h30v30h-30z"/><path d="m420 0h30v30h-30z"/><path d="m420 60h30v30h-30z"/><path d="m360 90h30v30h-30z"/><path d="m420 120h30v30h-30z"/></svg>