<svg clip-rule="evenodd" fill-rule="evenodd" stroke-miterlimit="10" viewBox="0 0 4552 2139" xmlns="http://www.w3.org/2000/svg" xmlns:xlink="http://www.w3.org/1999/xlink"><linearGradient id="a"><stop offset="0" stop-color="#808080" stop-opacity=".25"/><stop offset=".54" stop-color="#808080" stop-opacity=".12"/><stop offset="1" stop-color="#808080" stop-opacity=".1"/></linearGradient><linearGradient id="b" gradientTransform="matrix(0 -965.708 965.708 0 548.565 1028.5)" gradientUnits="userSpaceOnUse" x1="0" x2="1" xlink:href="#a" y1="0" y2="0"/><linearGradient id="c" gradientTransform="matrix(0 -223832 223832 0 373075 474534)" gradientUnits="userSpaceOnUse" x1="0" x2="1" xlink:href="#a" y1="0" y2="0"/><linearGradient id="d" gradientTransform="matrix(0 -223842 223842 0 372968 224373)" gradientUnits="userSpaceOnUse" x1="0" x2="1" xlink:href="#a" y1="0" y2="0"/><linearGradient id="e" gradientTransform="matrix(0 -223832 223832 0 640917 223869)" gradientUnits="userSpaceOnUse" x1="0" x2="1" xlink:href="#a" y1="0" y2="0"/><linearGradient id="f" gradientTransform="matrix(0 -223832 223832 0 111983 467172)" gradientUnits="userSpaceOnUse" x1="0" x2="1" xlink:href="#a" y1="0" y2="0"/><linearGradient id="g" gradientTransform="matrix(0 -223832 223832 0 645107 479636)" gradientUnits="userSpaceOnUse" x1="0" x2="1" xlink:href="#a" y1="0" y2="0"/><linearGradient id="h" gradientTransform="matrix(0 -223832 223832 0 116236 717734)" gradientUnits="userSpaceOnUse" x1="0" x2="1" xlink:href="#a" y1="0" y2="0"/><linearGradient id="i" gradientTransform="matrix(0 -223832 223832 0 382126 731638)" gradientUnits="userSpaceOnUse" x1="0" x2="1" xlink:href="#a" y1="0" y2="0"/><path d="m0 0h4551.51v2138.29h-4551.51z" fill="none"/><circle cx="548.565" cy="545.625" fill="url(#b)" r="482.875"/><circle cx="548.565" cy="543" fill="#f5f5f5" r="472.667"/><path d="m549.899 1017c92.355.152 182.741-26.894 259.833-77.75-17.417-95.167-83.708-100.625-83.708-100.625h-365.459s-62.5 5.125-82.083 92.708c79.447 55.884 174.284 85.817 271.417 85.667z" fill="#00bfa6" fill-rule="nonzero"/><circle cx="544.94" cy="532.583" fill="#333" r="209.542"/><path d="m471.315 722.625h146.209v116.958c0 40.093-32.991 73.084-73.084 73.084-40.092 0-73.083-32.991-73.083-73.084v-116.958z" fill-opacity=".1" fill-rule="nonzero"/><path d="m485.274 717.208h118.291c7.658 0 13.959 6.301 13.959 13.959v103c0 40.092-32.991 73.083-73.084 73.083-40.092 0-73.083-32.991-73.083-73.083v-103c0-7.642 6.275-13.936 13.917-13.959z" fill="#be7c5e" fill-rule="nonzero"/><path d="m471.607 777.833c47.108 17.607 99.001 17.755 146.208.417v-17.958h-146.208z" fill-opacity=".1" fill-rule="nonzero"/><circle cx="544.94" cy="578.083" fill="#be7c5e" r="209.542"/><path d="m417.982 491.667c2.458-9.042 5.542-19 13.667-23.709 6.416-3.75 14.375-3.166 21.791-2.791 57.917 3.166 115.334-10.042 171.667-23.834 32.208-7.875 66.667-17.458 87.5-43.416 20.833-25.959-6.333-107.542-38.042-117.167-20.833-6.375-45 5.5-64.75-3.833-8.791-4.167-15.25-11.959-22.833-18.042-15.542-12.5-35.5-17.542-54.833-22.292-22.584-5.583-47-11.041-68.459-2.083-16.666 6.917-28.833 21.542-44.625 30.208-30.041 16.667-66.666 8.917-101.083 8.834-11.625 0-25.5 2.333-30.125 13-3.125 7.25-.625 15.5-.292 23.375 1 25-19.625 44.458-36.916 62.5-17.292 18.041-33.625 43.791-22.709 66.208 4.167 8.542 11.792 15 16.125 23.458 7.459 14.667 3.709 32.375 6.417 48.584 2.712 12.298 7.308 24.105 13.625 35 12.833 25 77.292 159.583 106.917 125.375 14.333-16.667 16.666-64.834 22.458-86.5 8-31.139 16.167-62.098 24.5-92.875z" fill="#333" fill-rule="nonzero"/><ellipse cx="395.857" cy="570.458" fill="#be7c5e" rx="19.5" ry="36.542"/><circle cx="1666.73" cy="1596.58" fill="url(#c)" r="482.875"/><circle cx="1667.65" cy="1593.5" fill="#f5f5f5" r="472.667"/><path d="m1668.07 2068.04c92.299.119 182.623-26.926 259.667-77.75-17.417-95.167-83.708-100.625-83.708-100.625h-365.334s-62.5 5.125-82.083 92.708c79.459 55.892 174.311 85.825 271.458 85.667z" fill="#ff2600" fill-rule="nonzero"/><circle cx="1663.07" cy="1583.54" fill="#f55f44" r="228.167"/><path d="m1589.44 1773.58h146.209v116.959c0 40.092-32.991 73.083-73.084 73.083-40.092 0-73.083-32.991-73.083-73.083v-116.959z" fill-opacity=".1" fill-rule="nonzero"/><path d="m1603.4 1768.17h118.291c7.658 0 13.959 6.301 13.959 13.958v103c0 40.092-32.991 73.083-73.084 73.083-40.092 0-73.083-32.991-73.083-73.083v-103c0-7.657 6.301-13.958 13.958-13.958z" fill="#fda57d" fill-rule="nonzero"/><path d="m1589.73 1828.79c47.108 17.606 99.001 17.754 146.208.416v-17.958h-146.208z" fill-opacity=".1" fill-rule="nonzero"/><circle cx="1663.07" cy="1629.04" fill="#fda57d" r="209.542"/><circle cx="1662.77" cy="1351.46" fill="#f55f44" r="84.333"/><circle cx="1662.77" cy="1268.42" fill="#f55f44" r="55.375"/><g fill-rule="nonzero"><path d="m1626.19 1397.71c-40.857-18.327-60.358-66.164-43.958-107.833-.583 1.167-1.167 2.375-1.708 3.583-4.87 10.857-7.388 22.622-7.388 34.521 0 46.271 38.075 84.346 84.346 84.346 33.167 0 63.384-19.563 76.958-49.825.542-1.208 1.042-2.417 1.542-3.667-20.216 39.97-68.928 57.218-109.792 38.875z" fill="#f55f44"/><path d="m1513.86 1438.46s88.292 179.167 337.5 75l-58-90.958-102.792-36.917z" fill-opacity=".1"/><path d="m1513.86 1435.79s88.292 179.166 337.5 75l-58-90.959-102.792-36.916z" fill="#f55f44"/><path d="m1581.9 1370.54c54.333-4.274 108.917-4.274 163.25 0 54.333 4.273-120.584 11.208-163.25 0z" fill="#333"/><path d="m1675.44 1209.67c-4.189-.154-8.382.167-12.5.958h3.209c29.672.949 53.564 25.618 53.564 55.305 0 26.558-19.12 49.555-45.231 54.403.167.002.333.003.5.003 30.356 0 55.336-24.98 55.336-55.336 0-30.167-24.67-55.061-54.836-55.333z" fill="#f55f44"/></g><ellipse cx="1453.48" cy="1628.83" fill="#fda57d" rx="19.5" ry="36.542"/><ellipse cx="1872.61" cy="1628.83" fill="#fda57d" rx="19.5" ry="36.542"/><path d="m1500.65 1441.08 40.875-21.083 9.208 33.792-25.042 17.041z" fill="#f55f44" fill-rule="nonzero"/><circle cx="1666.27" cy="521.917" fill="url(#d)" r="482.875"/><circle cx="1666.27" cy="519.292" fill="#f5f5f5" r="472.667"/><path d="m1481.9 523.5s-53.584 264-82.834 249.375c0 0 282.084 243.667 531.167 0 0 0-43.875-186.042-107.208-249.375z" fill="#333" fill-rule="nonzero"/><path d="m1667.61 993.375c92.355.152 182.742-26.894 259.833-77.75-17.416-95.167-83.708-100.625-83.708-100.625h-365.5s-62.5 5.125-82.083 92.708c79.459 55.892 174.311 85.825 271.458 85.667z" fill="#f89a4f" fill-rule="nonzero"/><circle cx="1662.61" cy="508.875" fill="#333" r="209.542"/><path d="m1588.98 698.917h146.208v116.958c0 40.045-32.913 73.015-72.958 73.083-40.092 0-73.083-32.991-73.083-73.083v-116.958z" fill-opacity=".1" fill-rule="nonzero"/><path d="m1602.94 693.5h118.292c7.657 0 13.958 6.301 13.958 13.958v103c0 40.045-32.913 73.015-72.958 73.084-40.092 0-73.083-32.991-73.083-73.084v-103.041c.022-7.579 6.213-13.827 13.791-13.917z" fill="#be7c5e" fill-rule="nonzero"/><path d="m1589.27 754.125c47.107 17.607 99.001 17.754 146.208.417v-17.959h-146.208z" fill-opacity=".1" fill-rule="nonzero"/><circle cx="1662.61" cy="554.333" fill="#be7c5e" r="209.542"/><path d="m1462.32 474.75h399.584s-34.125-161.333-185.167-151.042c-151.042 10.292-214.417 151.042-214.417 151.042z" fill="#333" fill-rule="nonzero"/><ellipse cx="1457.4" cy="545.417" fill="#be7c5e" rx="19.5" ry="36.542"/><ellipse cx="1866.73" cy="545.417" fill="#be7c5e" rx="19.5" ry="36.542"/><path d="m1462.32 480.167h399.584s-34.125-161.334-185.167-151.042-214.417 151.042-214.417 151.042z" fill-opacity=".1" fill-rule="nonzero"/><circle cx="2817.36" cy="519.792" fill="url(#e)" r="482.875"/><circle cx="2818.27" cy="516.667" fill="#f5f5f5" r="472.667"/><path d="m2818.69 991.25c92.355.152 182.742-26.894 259.834-77.75-17.459-95.208-83.709-100.667-83.709-100.667h-365.458s-62.5 5.125-82.083 92.709c79.442 55.898 174.279 85.845 271.416 85.708z" fill="#23bf00" fill-rule="nonzero"/><circle cx="2813.73" cy="506.708" fill="#72351c" r="228.167"/><path d="m2740.07 696.75h146.209v116.958.125c0 40.093-32.991 73.084-73.083 73.084h-.001c-40.092 0-73.083-32.991-73.083-73.084v-117.083z" fill-opacity=".1" fill-rule="nonzero"/><path d="m2753.9 691.333h118.291c7.658 0 13.959 6.301 13.959 13.959v103c0 40.092-32.991 73.083-73.084 73.083-40.092 0-73.083-32.991-73.083-73.083v-103c0-7.658 6.301-13.959 13.958-13.959z" fill="#fda57d" fill-rule="nonzero"/><path d="m2740.23 751.958c47.108 17.607 99.001 17.755 146.208.417v-17.958h-146.208z" fill-opacity=".1" fill-rule="nonzero"/><circle cx="2813.73" cy="552.208" fill="#fda57d" r="209.542"/><path d="m2664.48 361.625s88.292 179.167 337.5 75l-58-90.958-102.792-36.917z" fill-opacity=".1" fill-rule="nonzero"/><path d="m2664.48 359s88.292 179.167 337.5 75l-58-90.958-102.792-36.917z" fill="#72351c" fill-rule="nonzero"/><path d="m2663.69 346.875c5.953-18.429 16.242-35.163 30-48.792 41.209-40.75 108.792-49.333 143.459-95.833 2.348 4.102 3.583 8.748 3.583 13.474 0 10.69-6.319 20.425-16.083 24.776 33.333-.208 71.708-3.125 90.458-30.458 9.456 22.009 5.374 47.606-10.458 65.583 29.416 1.333 60.833 21.292 62.75 50.708 1.25 19.584-11 38.125-27.125 49.375s-35.542 16.292-54.709 20.459c-55.916 12.5-258.375 64.208-221.875-49.292z" fill="#72351c" fill-rule="nonzero"/><path d="m3023.27 554.042h-5.542l-108.083 96.291c-104.167-48.75-180.584 0-180.584 0l-113.333-92.25-11.417 1.417c3.167 112.685 96.73 203.655 209.459 203.655 114.758 0 209.261-94.273 209.541-209.03zm-209.834 133.125c-40.75 0-73.791-8.334-73.791-18.459s33.041-18.458 73.791-18.458 73.792 8.333 73.792 18.458-33.042 18.459-73.833 18.459z" fill="#72351c" fill-rule="nonzero"/><ellipse cx="2604.11" cy="552" fill="#fda57d" rx="19.5" ry="36.542"/><ellipse cx="3023.23" cy="552" fill="#fda57d" rx="19.5" ry="36.542"/><circle cx="545.107" cy="1564.96" fill="url(#f)" r="482.875"/><circle cx="546.024" cy="1561.88" fill="#f5f5f5" r="472.667"/><path d="m546.44 2036.42c92.341.143 182.712-26.903 259.792-77.75-17.417-95.167-83.708-100.625-83.708-100.625h-365.625s-62.5 5.125-82.084 92.708c79.506 55.924 174.422 85.859 271.625 85.667z" fill="#004fbf" fill-rule="nonzero"/><circle cx="541.44" cy="1551.92" fill="#333" r="228.167"/><path d="m467.815 1741.96h146.209v116.959c0 40.092-32.991 73.083-73.084 73.083-40.092 0-73.083-32.991-73.083-73.083v-116.959z" fill-opacity=".1" fill-rule="nonzero"/><path d="m481.774 1736.54h118.291c7.658 0 13.959 6.301 13.959 13.958v103.083c0 40.093-32.991 73.084-73.084 73.084-.013 0-.027 0-.041 0-40.093 0-73.084-32.991-73.084-73.084v-103.125c0-7.657 6.301-13.958 13.959-13.958z" fill="#fdb797" fill-rule="nonzero"/><path d="m468.107 1797.17c47.108 17.606 99.001 17.754 146.208.416v-18.083h-146.208z" fill-opacity=".1" fill-rule="nonzero"/><circle cx="541.44" cy="1597.42" fill="#fdb797" r="209.542"/><path d="m392.232 1406.79s88.292 179.166 337.5 75l-58-90.959-102.792-36.916z" fill-opacity=".1" fill-rule="nonzero"/><path d="m392.232 1404.17s88.292 179.166 337.5 75l-58-90.959-102.792-36.916z" fill="#333" fill-rule="nonzero"/><path d="m391.44 1392c5.953-18.429 16.242-35.163 30-48.792 41.209-40.75 108.792-49.333 143.459-95.833 2.348 4.102 3.583 8.748 3.583 13.474 0 10.69-6.319 20.425-16.083 24.776 33.333-.208 71.708-3.125 90.458-30.458 9.456 22.009 5.374 47.606-10.458 65.583 29.416 1.333 60.833 21.292 62.75 50.708 1.25 19.584-11 38.125-27.125 49.375s-35.584 16.375-54.75 20.625c-55.917 12.417-258.334 64.125-221.834-49.458z" fill="#333" fill-rule="nonzero"/><ellipse cx="331.815" cy="1597.21" fill="#fdb797" rx="19.5" ry="36.542"/><ellipse cx="750.94" cy="1597.21" fill="#fdb797" rx="19.5" ry="36.542"/><circle cx="2835.36" cy="1618.5" fill="url(#g)" r="482.875"/><circle cx="2835.36" cy="1615.88" fill="#f5f5f5" r="472.667"/><path d="m2836.69 2089.96c92.355.152 182.742-26.894 259.834-77.75-17.417-95.166-83.709-100.625-83.709-100.625h-365.5s-62.5 5.125-82.083 92.709c79.459 55.891 174.311 85.825 271.458 85.666z" fill="#fff" fill-rule="nonzero"/><path d="m2758.07 1795.5h146.209v116.958c0 40.093-32.991 73.084-73.084 73.084-.013 0-.027 0-.041 0-40.093 0-73.084-32.991-73.084-73.084z" fill-opacity=".1" fill-rule="nonzero"/><path d="m2772.02 1790.08h118.291c7.658 0 13.959 6.301 13.959 13.959v103c0 40.092-32.991 73.083-73.084 73.083-.013 0-.027 0-.041 0-40.093 0-73.084-32.991-73.084-73.083v-103c0-7.658 6.301-13.959 13.959-13.959z" fill="#fdb797" fill-rule="nonzero"/><path d="m2758.36 1850.71c47.108 17.607 99.001 17.755 146.208.417v-17.958h-146.208z" fill-opacity=".1" fill-rule="nonzero"/><circle cx="2831.69" cy="1650.96" fill="#fdb797" r="209.542"/><ellipse cx="2626.48" cy="1642" fill="#fdb797" rx="19.5" ry="36.542"/><ellipse cx="3035.82" cy="1642" fill="#fdb797" rx="19.5" ry="36.542"/><path d="m2793.65 1670.08c0-10.003-8.122-18.125-18.125-18.125h-53.375c-10.004 0-18.125 8.122-18.125 18.125v8.584c0 10.003 8.121 18.125 18.125 18.125h53.375c10.003 0 18.125-8.122 18.125-18.125z" fill="none" stroke="#333" stroke-width="8.33"/><path d="m2869.77 1678.62c0 10.003 8.121 18.125 18.125 18.125h53.375c10.003 0 18.125-8.122 18.125-18.125v-8.583c0-10.004-8.122-18.125-18.125-18.125h-53.375c-10.004 0-18.125 8.121-18.125 18.125z" fill="none" stroke="#333" stroke-width="8.33"/><path d="m2790.23 1656.29s28.417-15.417 81.25 0" fill="none" stroke="#333" stroke-width="8.33"/><path d="m2976.57 1499.08 51.417 119.459s62.875-79.25-51.417-119.459z" fill="#858585" fill-rule="nonzero"/><path d="m2959.4 1674.38 76.75-68.542" style="fill:none;stroke:#333;stroke-width:8.33;stroke-linecap:round;stroke-linejoin:round;stroke-miterlimit:4"/><path d="m2686.9 1499.08-51.417 119.459s-62.875-79.25 51.417-119.459z" fill="#858585" fill-rule="nonzero"/><path d="m2704.02 1674.38-77.792-68.542" style="fill:none;stroke:#333;stroke-width:8.33;stroke-linecap:round;stroke-linejoin:round;stroke-miterlimit:4"/><circle cx="3996.19" cy="519.792" fill="url(#h)" r="482.875"/><circle cx="3996.19" cy="517.167" fill="#f5f5f5" r="472.667"/><path d="m4257.65 559.667c0 174.083-113.584 367.875-253.709 367.875s-253.583-193.792-253.583-367.875c0-174.084 113.583-262.5 253.708-262.5s253.584 88.458 253.584 262.5z" fill="#676767" fill-rule="nonzero"/><path d="m3997.52 991.292c92.354.152 182.741-26.895 259.833-77.75-17.417-95.167-83.708-100.625-83.708-100.625h-365.459s-62.5 5.125-82.083 92.708c79.447 55.883 174.284 85.816 271.417 85.667z" fill="#fe87ea" fill-rule="nonzero"/><path d="m3918.94 696.792h146.209v116.958c0 40.092-32.991 73.083-73.084 73.083-40.092 0-73.083-32.991-73.083-73.083v-116.958z" fill-opacity=".1" fill-rule="nonzero"/><path d="m3932.9 691.375h118.291c7.658 0 13.959 6.301 13.959 13.958v103c0 40.093-32.991 73.084-73.084 73.084-40.092 0-73.083-32.991-73.083-73.084v-103c0-7.641 6.275-13.935 13.917-13.958z" fill="#fdb797" fill-rule="nonzero"/><path d="m3919.23 752c47.107 17.607 99.001 17.754 146.208.417v-17.959h-146.208z" fill-opacity=".1" fill-rule="nonzero"/><circle cx="3992.56" cy="552.25" fill="#fdb797" r="209.542"/><ellipse cx="3787.36" cy="543.292" fill="#fdb797" rx="19.5" ry="36.542"/><ellipse cx="4196.69" cy="543.292" fill="#fdb797" rx="19.5" ry="36.542"/><path d="m3806.9 438.583s118.458 162.125 390.125 106.75c0 0 30.333-36.916-43.5-150.25-73.834-113.333-279.417-94.875-346.625 43.5z" fill-opacity=".1" fill-rule="nonzero"/><path d="m3806.9 435.958s118.458 162.125 390.125 106.75c0 0 30.333-36.916-43.5-150.25-73.834-113.333-279.417-94.875-346.625 43.5z" fill="#6e6e6e" fill-rule="nonzero"/><circle cx="4006.4" cy="1588.94" fill="url(#i)" r="482.875"/><circle cx="4007.36" cy="1585.85" fill="#f5f5f5" r="472.667"/><path d="m4267.4 1632.44c0 157.25-112.959 234.625-259.667 234.625s-271.5-77.375-271.5-234.625 118.917-284.709 265.583-284.709c146.667 0 265.584 127.334 265.584 284.709z" fill="#333" fill-rule="nonzero"/><path d="m4007.73 2060.4c92.369.16 182.771-26.887 259.875-77.75-17.417-95.167-83.708-100.625-83.708-100.625h-365.5s-62.5 5.125-82.084 92.708c79.448 55.883 174.284 85.817 271.417 85.667z" fill="#fffb00" fill-rule="nonzero"/><path d="m3929.02 1765.81h146.333v116.958.125c0 40.092-32.991 73.083-73.083 73.083-.056 0-.112 0-.167 0-40.092 0-73.083-32.991-73.083-73.083z" fill-opacity=".1" fill-rule="nonzero"/><path d="m3943.06 1760.52h118.292c7.657 0 13.958 6.301 13.958 13.958v103c0 40.093-32.991 73.084-73.083 73.084-.042 0-.083 0-.125 0-40.092 0-73.083-32.992-73.083-73.084v-103.041c0-7.658 6.301-13.959 13.958-13.959z" fill="#fda57d" fill-rule="nonzero"/><path d="m3929.44 1821.15c47.108 17.606 99.001 17.754 146.209.417v-17.959h-146.209z" fill-opacity=".1" fill-rule="nonzero"/><circle cx="4002.77" cy="1621.35" fill="#fda57d" r="209.542"/><path d="m3761.27 1635.06s130.5-15.834 229.166-142.334c0 0 130.5 143.667 221.417 127.834 0 0 52.708-55.375 0-110.709-52.708-55.333-93.583-125.208-163.417-116-69.833 9.208-155.541 13.167-192.416 46.125-36.875 32.959-94.75 195.084-94.75 195.084z" fill-opacity=".1" fill-rule="nonzero"/><path d="m3761.27 1632.44s130.5-15.834 229.166-142.334c0 0 130.5 143.667 221.417 127.834 0 0 52.708-55.375 0-110.709-52.708-55.333-93.583-125.208-163.417-116-69.833 9.208-155.375 13-192.25 46.334-36.875 33.333-94.916 194.875-94.916 194.875z" fill="#333" fill-rule="nonzero"/><ellipse cx="3793.15" cy="1621.19" fill="#fda57d" rx="19.5" ry="36.542"/><ellipse cx="4212.27" cy="1621.19" fill="#fda57d" rx="19.5" ry="36.542"/></svg>