<?xml version="1.0" encoding="UTF-8"?>
<!-- Generated by Pixelmator Pro 3.7.1 -->
<svg width="283" height="283" viewBox="0 0 283 283" xmlns="http://www.w3.org/2000/svg">
    <path id="-copy" fill="#000000" fill-rule="evenodd" stroke="none" d="M 48.659424 282.230469 C 32.643555 282.230469 20.525391 278.199951 12.303955 270.138672 C 4.08252 262.077393 -0.028076 250.092529 -0.028076 234.183594 L -0.028076 49.363281 C -0.028076 33.454346 4.08252 21.442749 12.303955 13.328125 C 20.525391 5.213501 32.643555 1.15625 48.659424 1.15625 L 232.358643 1.15625 C 248.480957 1.15625 260.625977 5.213501 268.794189 13.328125 C 276.962158 21.442749 281.046143 33.454346 281.046143 49.363281 L 281.046143 234.183594 C 281.046143 250.092529 276.962158 262.077393 268.794189 270.138672 C 260.625977 278.199951 248.480957 282.230469 232.358643 282.230469 Z M 49.780518 255.003906 L 231.237549 255.003906 C 238.391113 255.003906 243.943115 253.082031 247.893799 249.238281 C 251.844238 245.394531 253.81958 239.735718 253.81958 232.261719 L 253.81958 51.285156 C 253.81958 43.704346 251.844238 37.992188 247.893799 34.148438 C 243.943115 30.304688 238.391113 28.382813 231.237549 28.382813 L 49.780518 28.382813 C 42.52002 28.382813 36.968018 30.304688 33.124268 34.148438 C 29.280518 37.992188 27.358643 43.704346 27.358643 51.285156 L 27.358643 232.261719 C 27.358643 239.735718 29.280518 245.394531 33.124268 249.238281 C 36.968018 253.082031 42.52002 255.003906 49.780518 255.003906 Z M 96.065674 210.960938 C 92.542236 210.960938 89.605957 209.866577 87.25708 207.677734 C 84.907959 205.488892 83.733643 202.792969 83.733643 199.589844 C 83.733643 196.60022 84.80127 193.664063 86.936768 190.78125 L 124.093018 139.691406 L 89.018799 91.324219 C 86.456299 88.121094 85.175049 84.971436 85.175049 81.875 C 85.175049 78.458252 86.429443 75.575562 88.938721 73.226563 C 91.447754 70.877563 94.464111 69.703125 97.987549 69.703125 C 100.763428 69.703125 103.085693 70.236938 104.954346 71.304688 C 106.822754 72.372437 108.718018 74.294189 110.639893 77.070313 L 141.389893 122.074219 L 142.35083 122.074219 L 172.300049 77.230469 C 174.221924 74.454346 176.090332 72.505859 177.905518 71.384766 C 179.720459 70.263672 181.909424 69.703125 184.471924 69.703125 C 187.995361 69.703125 190.958252 70.797485 193.360596 72.986328 C 195.762939 75.175171 196.964111 77.924438 196.964111 81.234375 C 196.964111 84.223999 195.843018 87.160156 193.60083 90.042969 L 156.604736 140.332031 L 193.440674 190.300781 C 195.575928 193.076904 196.643799 196.012939 196.643799 199.109375 C 196.643799 202.632813 195.415771 205.488892 192.960205 207.677734 C 190.504395 209.866577 187.461426 210.960938 183.831299 210.960938 C 181.055176 210.960938 178.786377 210.400391 177.024658 209.279297 C 175.262939 208.158203 173.367676 206.102905 171.339111 203.113281 L 140.268799 158.429688 L 139.628174 158.429688 L 108.397705 203.113281 C 106.368896 206.102905 104.473877 208.158203 102.712158 209.279297 C 100.950439 210.400391 98.734863 210.960938 96.065674 210.960938 Z"/>
</svg>
