<?xml version="1.0" encoding="UTF-8"?> <svg xmlns="http://www.w3.org/2000/svg" clip-rule="evenodd" fill-rule="evenodd" stroke-linejoin="round" stroke-miterlimit="2" viewBox="0 0 197 179"><g fill="#ed1c24" fill-opacity=".5"><path d="m201.993 696.223c-11.873 8.761-27.024 13.103-42.786 10.988-30.162-4.046-51.935-30.307-51.039-60.078-1.306-17.526 1.131-67.107 59.798-117.614l-.26 60.435c2.369.029 4.758.202 7.161.524 4.681.628 9.159 1.791 13.387 3.421-10.45 24.04-10.873 43.54-10.15 53.234-.594 19.712 8.751 37.884 23.889 49.09z" transform="matrix(-1 0 0 -1 304.70821 707.74)"></path><path d="m163.832 590.543c2.353-.286 4.743-.433 7.168-.433 32.502 0 58.89 26.388 58.89 58.89s-26.388 58.89-58.89 58.89c-30.432 0-55.503-23.133-58.573-52.759-3.625-17.197-7.803-66.661 43.628-124.521z" transform="matrix(-.991121 -.132963 .132963 -.991121 142.08421 724.86)"></path></g></svg> 